 <!DOCTYPE svg PUBLIC "-//W3C//DTD SVG 1.1//EN" "http://www.w3.org/Graphics/SVG/1.1/DTD/svg11.dtd">
<svg xmlns="http://www.w3.org/2000/svg" width="865.76" height="682.89" viewBox="0 0 865.76 682.89">
<defs>
<style xmlns="http://www.w3.org/1999/xhtml">*, ::after, ::before { box-sizing: border-box; }
img, svg { vertical-align: middle; }
</style>
<style xmlns="http://www.w3.org/1999/xhtml">*, body, html { -webkit-font-smoothing: antialiased; }
img, svg { max-width: 100%; }
</style>
</defs>
<path d="M190.51,489.36C83.2,321.59,229.84,187,229.84,187,363.89,46.88,465.58,44.12,477.77,44.32c.88,0,1.76,0,2.65,0,16.11-.18,164.63,1.21,222.83,110.56,0,0,11.59,27.77,0,85.14,0,0-17.68,67.41,28,94.71,0,0,130.29,56.18,114.84,124.65,0,0-24,139.37-314.21,176.48,0,0-202.58,31.24-320.17-118.86Z" fill="#0071f2" data-primary="true"/>
<path d="M846.14,459.4s-7.88,45.71-69.12,91.74q-9.88,7.46-21.69,14.82-4.83,3-10,6c-46.65,26.8-114.6,51.28-213.39,63.92,0,0-202.57,31.24-320.17-118.85l-21.25-27.67C83.2,321.58,229.84,187,229.84,187c70-73.1,131.09-108.82,175.28-126.23,7.4-2.9,14.31-5.3,20.72-7.28,28.72-8.86,47.16-9.23,51.93-9.16.89,0,1.76,0,2.64,0,9.07-.1,60.1.29,113.37,20.18,5.39,2,10.8,4.2,16.19,6.64,1.37.61,2.73,1.24,4.1,1.89,1,.48,2,1,3,1.45,2.29,1.12,4.58,2.28,6.85,3.49,31,16.39,60.07,40.75,79.32,76.91a60.73,60.73,0,0,1,2.87,10.82,130.75,130.75,0,0,1,1.94,15.86c.14,2.29.25,4.73.3,7.31.27,13.16-.88,30.18-5.11,51.15,0,0-12.25,46.71,10,78.11A58.63,58.63,0,0,0,730.07,334c.4.25.81.51,1.23.75,0,0,5.36,2.32,13.79,6.56l.23.13c3,1.51,6.37,3.26,10,5.25,6.54,3.55,14,7.83,21.69,12.76C812.9,382.24,855.34,418.63,846.14,459.4Z" fill="#fff" opacity="0.7"/>
<path d="M730.07,334H425.84V318.15H713.26A58.63,58.63,0,0,0,730.07,334Z" fill="#e6e6e6"/>
<path d="M745.09,341.31H425.84V334H730.07c.4.25.81.51,1.23.75C731.3,334.75,736.66,337.07,745.09,341.31Z" fill="#fff"/>
<path d="M708.06,181.58H425.84V165.72H706.12A130.75,130.75,0,0,1,708.06,181.58Z" fill="#e6e6e6"/>
<path d="M708.36,188.89H425.84v-7.31H708.06C708.2,183.87,708.31,186.31,708.36,188.89Z" fill="#fff"/>
<path d="M425.84,53.48V545H405.12V60.76C412.52,57.86,419.43,55.46,425.84,53.48Z" fill="#fff"/>
<path d="M24.67,390.09s97.55-6.1,128,8.53c0,0-15.77-39.09-46.29-52.47A48.81,48.81,0,0,0,60.86,350C41.54,362.2,3.26,388.23,24.67,390.09Z" fill="#0071f2" data-primary="true"/>
<path d="M60,284S32.57,303.51,77.4,331.56c0,0,64.33,37.8,79,41.46,0,0-14.51-73.17-64.56-89C91.8,284,74.66,275.47,60,284Z" fill="#0071f2" data-primary="true"/>
<path d="M194.82,464.19a.61.61,0,0,1-.59-.46c-9-34.57-27.26-71.7-27.44-72.07-30.21-59.49-65.22-75.42-78.39-81.42-2.85-1.3-4.57-2.08-5.2-2.84a.61.61,0,1,1,.93-.78c.46.55,2.36,1.41,4.77,2.51,13.28,6,48.57,22.11,79,82,.19.38,18.52,37.61,27.53,72.31a.61.61,0,0,1-.44.74Z" fill="#2f2e41" data-secondary="true"/>
<path d="M24.67,390.09s97.55-6.1,128,8.53c0,0-15.77-39.09-46.29-52.47A48.81,48.81,0,0,0,60.86,350C41.54,362.2,3.26,388.23,24.67,390.09Z" opacity="0.2"/>
<path d="M193.58,464.19a.61.61,0,0,1-.58-.45c-6.56-23.64-13.82-33.63-13.89-33.73-16.29-33.6-49.7-46.12-74.87-50.74a187.61,187.61,0,0,0-51.39-2,.61.61,0,0,1-.15-1.21,188.45,188.45,0,0,1,51.73,2c25.46,4.66,59.26,17.34,75.71,51.31.25.31,7.4,10.14,14,34a.61.61,0,0,1-.42.75Z" fill="#2f2e41" data-secondary="true"/>
<path d="M75.22,376.4a.63.63,0,0,1-.37-.12c-17.31-13.16-37.9-9.49-38.11-9.45a.62.62,0,0,1-.71-.48.63.63,0,0,1,.49-.72c.21,0,21.32-3.82,39.07,9.68a.61.61,0,0,1,.11.85A.6.6,0,0,1,75.22,376.4Z" fill="#2f2e41" data-secondary="true"/>
<path d="M100.59,378.64a.61.61,0,0,1-.58-.41C90.82,351.06,62.19,350,61.9,350a.6.6,0,0,1-.59-.62.66.66,0,0,1,.62-.6c.3,0,29.77,1.12,39.24,29.11a.62.62,0,0,1-.39.77A.63.63,0,0,1,100.59,378.64Z" fill="#2f2e41" data-secondary="true"/>
<path d="M123.18,384a.61.61,0,0,1-.59-.46C115.09,355.17,92.78,343.17,91,343a.61.61,0,0,1,.12-1.21c1.8.17,24.84,12.09,32.61,41.48a.61.61,0,0,1-.43.75Z" fill="#2f2e41" data-secondary="true"/>
<path d="M51.71,389.84a.62.62,0,0,1-.55-.34.61.61,0,0,1,.27-.82c.19-.09,19.32-9.74,34-13a.61.61,0,0,1,.72.46.6.6,0,0,1-.46.73C71.16,380.1,52.17,389.67,52,389.77A.68.68,0,0,1,51.71,389.84Z" fill="#2f2e41" data-secondary="true"/>
<path d="M85.53,389.84a.63.63,0,0,1-.54-.32.62.62,0,0,1,.24-.83c.67-.37,16.6-9.08,29.27-8.42a.61.61,0,1,1-.07,1.21c-12.29-.66-28.44,8.19-28.61,8.28A.6.6,0,0,1,85.53,389.84Z" fill="#2f2e41" data-secondary="true"/>
<path d="M105.48,319.16a.6.6,0,0,1-.61-.56c-.87-11.45-14.1-27-14.23-27.14a.61.61,0,0,1,.06-.86.61.61,0,0,1,.86.07c.56.64,13.63,16,14.52,27.84a.6.6,0,0,1-.56.65Z" fill="#2f2e41" data-secondary="true"/>
<path d="M124.43,333.56a.6.6,0,0,1-.6-.52,98.28,98.28,0,0,0-10.67-31.66.61.61,0,1,1,1-.61A99.31,99.31,0,0,1,125,332.87a.61.61,0,0,1-.51.69Z" fill="#2f2e41" data-secondary="true"/>
<path d="M120.82,330.4a.59.59,0,0,1-.29-.07c-12-6.48-34.68-3.15-34.91-3.11a.6.6,0,0,1-.69-.52.59.59,0,0,1,.51-.69c.94-.14,23.26-3.42,35.67,3.24a.61.61,0,0,1,.25.83A.62.62,0,0,1,120.82,330.4Z" fill="#2f2e41" data-secondary="true"/>
<path d="M141.2,351.28a.57.57,0,0,1-.4-.16c-12.39-11.07-35.08-10.61-35.31-10.6a.61.61,0,0,1,0-1.22c1,0,23.4-.49,36.15,10.92a.61.61,0,0,1,0,.86A.63.63,0,0,1,141.2,351.28Z" fill="#2f2e41" data-secondary="true"/>
<path d="M98.29,314.64h-.08c-12.75-1.65-34.75,0-35,0a.61.61,0,0,1-.65-.56.6.6,0,0,1,.56-.65c.22,0,22.36-1.66,35.23,0a.61.61,0,0,1-.08,1.21Z" fill="#2f2e41" data-secondary="true"/>
<path d="M253.91,313.27s-18.1,39.2-52.08,41.22a8.05,8.05,0,0,1-7.87-5,83.32,83.32,0,0,1-5.22-18A84.28,84.28,0,0,1,199,274.25s12.45-22.07,30.8-34.21h0c7.81-5.16,16.68-8.52,26.12-7.63a5.39,5.39,0,0,1,4.31,3C264.11,243.18,272.83,268.47,253.91,313.27Z" fill="#0071f2" data-primary="true"/>
<path d="M229.84,240s-2.63,44-41.1,91.52A84.28,84.28,0,0,1,199,274.25S211.49,252.18,229.84,240Z" opacity="0.2"/>
<path d="M200.73,464.05a.63.63,0,0,1-.57-.39c-2.49-6.54-6.79-36-8.52-48.39a75.87,75.87,0,0,1-.71-13.17c2.95-88.4,46.22-143.54,46.65-144.08a.61.61,0,0,1,.86-.1.62.62,0,0,1,.1.86c-.44.54-43.46,55.39-46.39,143.36a74.45,74.45,0,0,0,.7,13c1.72,12.33,6,41.7,8.45,48.12a.61.61,0,0,1-.35.79A.78.78,0,0,1,200.73,464.05Z" fill="#2f2e41" data-secondary="true"/>
<path d="M215.55,298.22a.57.57,0,0,1-.4-.16.6.6,0,0,1-.05-.86c.18-.2,18-19.9,37.59-19.9a.61.61,0,0,1,.61.61.61.61,0,0,1-.61.61c-19,0-36.51,19.3-36.68,19.5A.63.63,0,0,1,215.55,298.22Z" fill="#2f2e41" data-secondary="true"/>
<path d="M203,332.17a.58.58,0,0,1-.33-.1.61.61,0,0,1-.18-.84c.18-.27,17.84-27.12,43.86-24.67a.61.61,0,0,1,.55.66.6.6,0,0,1-.67.55c-25.28-2.38-42.54,23.85-42.72,24.12A.6.6,0,0,1,203,332.17Z" fill="#2f2e41" data-secondary="true"/>
<path d="M218.18,367.63s15-37.38,41.25-44.65c0,0,19.76-4.18,33.95,1.59,0,0,14.41,6,11.86,16.24,0,0-.11,26.11-41.57,23.67C263.67,364.48,233.66,362.24,218.18,367.63Z" fill="#0071f2" data-primary="true"/>
<path d="M285,354.74c0-.07-3.3-7.21-10.25-7.56l.06-1.22c7.71.39,11.17,8,11.31,8.29Z" fill="#2f2e41" data-secondary="true"/>
<path d="M199,462.41c-.07-3.36-1.51-82.52,26.41-103.26,1.11-1.24,16.3-17.11,66.32-12.35l-.11,1.22c-50.32-4.79-65.19,11.81-65.33,12l-.1.09c-27.47,20.31-26,101.47-26,102.29Z" fill="#2f2e41" data-secondary="true"/>
<path d="M246.82,350.88l-1.15-.42c4.57-12.72,23.11-19.21,23.9-19.48l.39,1.16C269.78,332.2,251.19,338.71,246.82,350.88Z" fill="#2f2e41" data-secondary="true"/>
<path d="M266.85,347l-.84-.89c11.31-10.64,20.6-12,21-12l.16,1.21C287.07,335.28,277.85,336.63,266.85,347Z" fill="#2f2e41" data-secondary="true"/>
<path d="M254.57,362.27c-4.62-11.55-18.22-8.32-18.8-8.17l-.3-1.18c.15,0,15.21-3.65,20.23,8.9Z" fill="#2f2e41" data-secondary="true"/>
<path d="M274.24,361.09c-.08-.12-8.32-12.58-17.75-12.24l-.05-1.22c10-.4,18.47,12.26,18.82,12.8Z" fill="#2f2e41" data-secondary="true"/>
<path d="M211.38,463.65c0-.41-4.32-41.18,29.47-49.15l.28,1.19c-32.73,7.72-28.59,47.42-28.54,47.82Z" fill="#2f2e41" data-secondary="true"/>
<path d="M173.67,334.66s-20.71,4.21-45.23-45.17c0,0-34.27-54.26-9.88-100.6,0,0,17.07-42.68,48.78-37.8,0,0,40.39,13.95,50.2,67.49A118.71,118.71,0,0,1,194,313.19,161,161,0,0,1,173.67,334.66Z" fill="#0071f2" data-primary="true"/>
<path d="M198.16,464.19a.6.6,0,0,1-.57-.4c-14.16-38.31-23.45-105.86-23.54-106.54-7.24-42.28-10-182.3-10-183.71a.61.61,0,0,1,.6-.62.58.58,0,0,1,.62.59c0,1.41,2.78,141.35,10,183.55.1.7,9.37,68.12,23.48,106.31a.61.61,0,0,1-.36.78A.52.52,0,0,1,198.16,464.19Z" fill="#2f2e41" data-secondary="true"/>
<path d="M164.9,202.91a.6.6,0,0,1-.57-.39c-11.83-31.93-26.93-28.44-27.08-28.4a.61.61,0,0,1-.74-.44.59.59,0,0,1,.43-.74c.65-.18,15.71-3.77,27.84,27.34,1.67-6.11,7.78-24.82,20.58-27.35a.61.61,0,1,1,.23,1.19c-14.22,2.82-20,28.06-20.1,28.32a.61.61,0,0,1-.55.47Z" fill="#2f2e41" data-secondary="true"/>
<path d="M167.48,264a.61.61,0,0,1-.56-.37l-6-14.05a88.94,88.94,0,0,0-20.7-30.05,147.94,147.94,0,0,0-15.93-13.09.61.61,0,0,1-.16-.85.6.6,0,0,1,.84-.16,146.49,146.49,0,0,1,16.08,13.21,90.24,90.24,0,0,1,21,30.46l5.15,12.14c10-56.51,42.39-60.75,42.72-60.79a.61.61,0,1,1,.13,1.21c-.32,0-32.58,4.35-42,61.83a.62.62,0,0,1-.53.51Z" fill="#2f2e41" data-secondary="true"/>
<path d="M169.31,300.05a.61.61,0,0,1-.6-.51c-6.43-36.23-53.54-53.81-54-54a.62.62,0,0,1-.37-.79.61.61,0,0,1,.78-.36c.47.17,45.8,17.09,54.21,52.09,2.33-9.53,12.28-40.66,45.19-57a.61.61,0,0,1,.81.28.61.61,0,0,1-.27.82c-38.41,19.08-45.08,58.54-45.14,58.94a.63.63,0,0,1-.6.52Z" fill="#2f2e41" data-secondary="true"/>
<path d="M93.17,419.66s37.59-23.55,59.53-.34c0,0,12.24,10.33,22.58,36.89,0,0-44.4-7.42-63.36-24A74.33,74.33,0,0,0,93.17,419.66Z" fill="#0071f2" data-primary="true"/>
<path d="M93.17,419.66s37.59-23.55,59.53-.34c0,0,12.24,10.33,22.58,36.89,0,0-44.4-7.42-63.36-24A74.33,74.33,0,0,0,93.17,419.66Z" opacity="0.2"/>
<path d="M93.17,419.66S49.06,395,34.43,441.3c0,0-3.39,15.23,1.12,23.13A7.53,7.53,0,0,0,44,467.9c5-1.24,13.76-5.88,25.83-21.72C69.79,446.18,86.07,423.63,93.17,419.66Z" fill="#0071f2" data-primary="true"/>
<path d="M39.84,456.82a.78.78,0,0,1-.21,0,.62.62,0,0,1-.37-.78c.15-.4,15.14-40.29,54-36.94a.61.61,0,1,1-.1,1.21C55.23,417,40.55,456,40.41,456.42A.61.61,0,0,1,39.84,456.82Z" fill="#2f2e41" data-secondary="true"/>
<path d="M278.05,486.11S245.38,264.49,385.61,226.69c0,0,34.95-16.53,118.27,20.73,11.18,5,20.74,18.7,27.14,29.14,7.05,11.51,15.67,29.05,21.91,53.17,0,0,22,57.72,30.39,137.69Z" fill="#b3b3b3"/>
<path d="M308.78,443.74c-12.15-27.44,10.85-114,10.85-114,4.75-39.63,73.8-45,73.8-45,16.36.75,26.93-14.88,26.93-14.88-15.24-30,1.49-46.83,1.49-46.83L484,214.41l24.2,26.23L376.46,440.1Z" opacity="0.2"/>
<path d="M777,359.45V551.14q-9.88,7.46-21.69,14.82V346.69C761.87,350.24,769.29,354.52,777,359.45Z" fill="#fff"/>
<path d="M755.33,346.69V566q-4.83,3-10,6V341.44C748.31,343,751.69,344.7,755.33,346.69Z" fill="#e6e6e6"/>
<path d="M746.71,525.44,741.22,535a1.74,1.74,0,0,0,.56,2.34l.86.57a1.77,1.77,0,0,0,2.27-.29l7.7-8.5-6.11-6Z" fill="#2f2e41" data-secondary="true"/>
<path d="M799.31,526.66l5.49,9.54a1.74,1.74,0,0,1-.56,2.34l-.86.57a1.76,1.76,0,0,1-2.26-.29l-7.7-8.5,6.1-6Z" fill="#2f2e41" data-secondary="true"/>
<polygon points="508.18 522.35 502.48 506.41 517.97 501.95 554.41 498.24 627.53 509.37 652.04 535.8 508.18 522.35" fill="#fff"/>
<polygon points="660.12 509.37 627.53 509.37 554.41 498.24 527.66 479.71 592.3 476.78 660.12 509.37" fill="#e6e6e6"/>
<polygon points="227.7 550.44 839.82 545.56 716.66 469.96 118.16 462.39 227.7 550.44" fill="#999"/>
<path d="M518,502l54.58-5.56a.74.74,0,0,0,.17-1.44l-74.34-25.5-53,8.43Z" fill="#ccc"/>
<polygon points="227.7 550.44 224.04 580.92 114.53 490.5 118.16 462.39 227.7 550.44" fill="#666"/>
<path d="M412.43,288.88s-40.71,13.28-45.35,19.44l-13.21,78.45A50.28,50.28,0,0,0,357,414.44l25.52,61.21,99.38-16.06a97.29,97.29,0,0,0,18.29-40.24s0-54.87,24.38-87.79c0,0-3.76-11.53-45.17-22.23Z" fill="#0071f2" data-primary="true"/>
<path d="M367.53,308.41a11.24,11.24,0,0,0-7.35-2c-8.07.72-26.75,7.9-36.15,46.45,0,0-13.42,56.09,1.22,67.06l56.09,13.42s-13.42-3.66-9.76-29.27C371.58,404.11,393.63,326.33,367.53,308.41Z" fill="#0071f2" data-primary="true"/>
<path d="M367,308a10.56,10.56,0,0,0-6.43-1.62c-7.86.57-27,7.34-36.51,46.48,0,0-13.42,56.09,1.22,67.06l56.09,13.42s-13.42-3.66-9.76-29.27C371.58,404.11,394,325.23,367,308Z" opacity="0.2"/>
<path d="M478.65,475l-7-22.89-12.67-1.43-13-8.75c-7.31-3.66-12.83-1.65-12.83-1.65l-13.86,3c-9.62,1.3-11.11,21.16-11.11,21.16l2.44.7s22.15-11.59,26.93-7.62L448.4,465s3.34,1.19,4.11,6.12c0,0,7.35,10,15.44,6.74a23.68,23.68,0,0,1,3.49-1.13Z" fill="#f9b499"/>
<path d="M455,474.43a.64.64,0,0,1-.33-.1.59.59,0,0,1-.18-.84l5.64-8.74a.61.61,0,0,1,1,.66l-5.65,8.74A.61.61,0,0,1,455,474.43Z" fill="#f7a48b"/>
<g opacity="0.2">
<rect x="375.5" y="302.9" width="32.4" height="1.22" transform="translate(-79.56 150.32) rotate(-19.76)"/>
</g>
<g opacity="0.2">
<path d="M517.62,328.94c-8.28-6-40.74-13.85-41.06-13.93l.28-1.18c1.34.32,33,8,41.49,14.12Z"/>
</g>
<polygon points="431.75 506.12 444.66 510.31 517.97 501.95 452.01 479.99 437.48 465.08 421.85 475.8 411.82 494.35 431.75 506.12" fill="#e6e6e6"/>
<polygon points="444.66 510.31 406.33 496.05 406.33 506.03 444.66 516.78 444.66 510.31" fill="#2f2e41" data-secondary="true"/>
<polygon points="224.04 580.92 839.82 568.42 839.82 545.56 227.7 550.44 224.04 580.92" fill="gray"/>
<line x1="733.44" y1="496.82" x2="742.13" y2="497.25" fill="none" stroke="red" stroke-miterlimit="10" stroke-width="0.25"/>
<path d="M244.16,409.6s11.6-9,32-13l-1.2,21S258.79,409.6,244.16,409.6Z" fill="#0071f2" data-primary="true"/>
<path d="M468.82,312.16c-.16,19.7-5.38,27.74-10.27,31h0a11.62,11.62,0,0,1-8.45,1.85c-34.9-4.27-38.27-55.48-38.27-55.48l18.87-19.6v0c-3.37,18.78,2.46,36,15.79,42.19C453.35,315.28,461.17,315.1,468.82,312.16Z" fill="#f9b499"/>
<path d="M468.82,312.16c-.16,19.7-5.38,27.74-10.27,31h0l-21.61-23.57c-16.07-18.39-6.57-48.62-6.24-49.66v0c-3.37,18.78,2.46,36,15.79,42.19C453.35,315.28,461.17,315.1,468.82,312.16Z" fill="#f7a48b"/>
<path d="M498.25,282.48c-6.84,14.64-17.94,25.26-29.43,29.68-7.65,2.94-15.47,3.12-22.33-.1-13.33-6.23-19.16-23.41-15.79-42.19a66.85,66.85,0,0,1,5.28-16.5c11.39-24.37,34.57-37.62,51.76-29.58S509.64,258.1,498.25,282.48Z" fill="#f9b499"/>
<path d="M442.31,244.37c0,.54,0,1.06-.08,1.59-.58,7.34-5.24,13-10.9,13-6.06,0-11-6.55-11-14.64,0-5.57,2.33-10.41,5.76-12.87a8.79,8.79,0,0,1,5.21-1.76C437.39,229.74,442.31,236.29,442.31,244.37Z" fill="#f9b499"/>
<path d="M533.76,238.28s13.41,13.41-6.1,26.82c0,0-4.25,23.32-27.74,13.49,0,0-3.17-1.73.71-10.66,0,0-34.94,5-18.61-34.26-.49.68-16.89,23.29-39.71,21.29,0,0,17.34-5.71,20.86-10.59,0,0-12.33,3.3-20.86,1.65l-.08-.06c0-.53.08-1.05.08-1.59,0-8.08-4.92-14.63-11-14.63a8.79,8.79,0,0,0-5.21,1.76s-7-33.46,43-45.66c0,0-10.13-12-2-23.65,0,0,4.45-9.27,21.52-4.39,0,0,23.17-12.2,23.17,13.41,0,0,13.41-2.44,11,12.19,0,0,9.76,4.88-2.43,14.64,0,0,12.26,2.63,6.13,15.34C526.48,213.38,547.17,222.42,533.76,238.28Z" fill="#2f2e41" data-secondary="true"/>
<path d="M499.84,207.87a20.46,20.46,0,0,1-3.09-.23c-8.12-1.2-15.14-7.21-20.84-17.85,0,0-.3-.48-.83-1.23-1.28-.42-2.4-.8-3.31-1.12a34.19,34.19,0,0,0-5.72-1.43c-13.8-2.27-17.9-6.56-18.86-9.86A4.7,4.7,0,0,1,448,172a5.22,5.22,0,0,1,4.09-2.1h.22c10.38,0,20.34,12.92,23.6,17.6,9.24,3,27,8.23,44.54,9.9l1.29.12-.91.92C520.36,198.88,511.23,207.87,499.84,207.87ZM477,189.17h0c5.54,10.32,12.24,16.11,20,17.26,10,1.48,19.07-5.4,22-7.93C502.6,196.79,486.32,192.18,477,189.17Zm-24.7-18h-.2a4,4,0,0,0-3.13,1.61,3.49,3.49,0,0,0-.57,3.05c.92,3.18,5.29,7.4,20.85,9.43l.14,0c.06,0,1.7.65,4.52,1.6C470,181.62,461.09,171.15,452.26,171.15Z" fill="#0071f2" data-primary="true"/>
<polygon points="472.32 186.99 465.47 213.89 460.6 212.67 466.46 195.51 450.09 225.75 444.75 221.21 467.3 185.23 472.32 186.99" fill="#0071f2" data-primary="true"/>
<path d="M470.35,448l9.76,31.7,79.61-5.89s10.62-7.52,3.3-29.47L524.61,331.56s-26.21,28.65-26.21,86l24.38,20.22Z" fill="#0071f2" data-primary="true"/>
<path d="M498.4,417.52c-.74-21,5.09-43.44,19.57-59.21-1.11,1.56-2.38,3.27-3.51,4.82-10.56,16-15.21,35.36-16.06,54.39Z" opacity="0.2"/>
<path d="M415.75,463a.83.83,0,0,1-.22,0,.63.63,0,0,1-.36-.79,49.07,49.07,0,0,1,7.15-12.11.61.61,0,0,1,.86-.1.62.62,0,0,1,.09.86,48.08,48.08,0,0,0-6.95,11.78A.62.62,0,0,1,415.75,463Z" fill="#f7a48b"/>
<path d="M434.18,457a.3.3,0,0,1-.13,0,.6.6,0,0,1-.46-.73,27.92,27.92,0,0,1,6.75-11.8.61.61,0,1,1,.88.84,27.21,27.21,0,0,0-6.44,11.24A.62.62,0,0,1,434.18,457Z" fill="#f7a48b"/>
<path d="M444.66,463a.62.62,0,0,1-.29-.07.61.61,0,0,1-.25-.82l5.43-10.31a.61.61,0,0,1,1.07.57l-5.42,10.31A.6.6,0,0,1,444.66,463Z" fill="#f7a48b"/>
<path d="M397.89,461.42l12.71,3.66s14.67-8.25,22.55-8.85a6.81,6.81,0,0,1,4.38,1.23l11.83,8.19a7.3,7.3,0,0,1,3.15,5.46,24.26,24.26,0,0,1-.45,7.41s0,9.73-3.66,9.73c0,0-1.53,8.28-8.08,7.8a10.07,10.07,0,0,1-5.33,4.39s0,8-9.74,6.43c0,0-28.06-8.87-34.16-17.4l1.22-25.61Z" fill="#f7a48b"/>
<path d="M448.4,488.86a.6.6,0,0,1-.44-.2l-15.25-16.51a.61.61,0,0,1,.9-.83l15.24,16.51a.63.63,0,0,1,0,.87A.67.67,0,0,1,448.4,488.86Z" fill="#ef947f"/>
<path d="M408.16,487.64a.85.85,0,0,1-.22,0,.61.61,0,0,1-.34-.79c0-.15,5.93-14.88,17-25.82a.6.6,0,0,1,.86,0,.63.63,0,0,1,0,.87c-10.92,10.75-16.7,25.25-16.76,25.39A.61.61,0,0,1,408.16,487.64Z" fill="#ef947f"/>
<path d="M440.32,496.66a.61.61,0,0,1-.51-1,4.21,4.21,0,0,0,.57-3.77c-1.9-6.11-15.41-11.61-15.54-11.66a.62.62,0,0,1-.34-.8.6.6,0,0,1,.79-.33c.58.23,14.18,5.77,16.25,12.43a5.45,5.45,0,0,1-.71,4.8A.61.61,0,0,1,440.32,496.66Z" fill="#ef947f"/>
<path d="M435,501.05a.63.63,0,0,1-.37-.12L421.48,491a.61.61,0,1,1,.74-1L435.36,500a.61.61,0,0,1,.12.85A.62.62,0,0,1,435,501.05Z" fill="#ef947f"/>
<line x1="491.56" y1="444.29" x2="470.35" y2="448.01" fill="none" stroke="#000" stroke-linecap="round" stroke-linejoin="round" opacity="0.2"/>
<polygon points="343.54 505.32 346.29 481.64 206.28 462.39 203.31 483.02 343.54 505.32" fill="#525659"/>
<polygon points="393.43 487.88 343.54 505.32 346.29 481.64 395.9 465.08 393.43 487.88" fill="#e6e6e6"/>
<g opacity="0.2">
<path d="M349.11,486.31a.63.63,0,0,1-.57-.39.61.61,0,0,1,.36-.79l42.93-16.25a.62.62,0,0,1,.79.35.61.61,0,0,1-.36.79l-42.93,16.25A.54.54,0,0,1,349.11,486.31Z"/>
</g>
<g opacity="0.2">
<path d="M349.11,490a.63.63,0,0,1-.57-.39.61.61,0,0,1,.36-.79l42.93-16.25a.62.62,0,0,1,.79.35.61.61,0,0,1-.36.79l-42.93,16.25A.54.54,0,0,1,349.11,490Z"/>
</g>
<g opacity="0.2">
<path d="M349.11,494.85a.62.62,0,0,1-.57-.4.6.6,0,0,1,.36-.78l42.93-16.26a.61.61,0,0,1,.79.36.6.6,0,0,1-.36.78l-42.93,16.26A.78.78,0,0,1,349.11,494.85Z"/>
</g>
<g opacity="0.2">
<path d="M349.11,499.72a.63.63,0,0,1-.57-.39.61.61,0,0,1,.36-.79l42.93-16.25a.61.61,0,0,1,.79.36.6.6,0,0,1-.36.78l-42.93,16.25A.54.54,0,0,1,349.11,499.72Z"/>
</g>
<polygon points="206.28 462.39 346.29 481.64 395.9 465.08 326.51 449.06 266.72 439.47 206.28 462.39" fill="#5d6166"/>
<path d="M293.74,432.16l12.71-8.57a31.53,31.53,0,0,1,17.84-5.44c22.41.19,58.27,11.65,58.27,11.65l10.87,22.29c-73.26-26.41-95.81,4.12-95.81,4.12-34.94-61.31-111.71-16.5-111.71-16.5l-2.33-22.19L203.31,409s53.65-4.88,75.6,11Z" fill="#e6e6e6"/>
<g opacity="0.2">
<path d="M209.26,430.78a.61.61,0,0,1-.59-.43L202.73,411a.61.61,0,0,1,.4-.77.62.62,0,0,1,.76.41l6,19.35a.61.61,0,0,1-.41.76Z"/>
</g>
<g opacity="0.2">
<path d="M189.19,438.55a.6.6,0,0,1-.6-.52l-2.71-20.31a.62.62,0,0,1,.52-.69.61.61,0,0,1,.68.53l2.72,20.3a.62.62,0,0,1-.52.69Z"/>
</g>
<g opacity="0.2">
<path d="M193.58,436.55a.61.61,0,0,1-.59-.47l-4.39-19.41a.61.61,0,0,1,1.19-.27l4.39,19.41a.61.61,0,0,1-.46.73Z"/>
</g>
<g opacity="0.2">
<path d="M198.16,434.66a.62.62,0,0,1-.6-.47L193,414.9a.6.6,0,0,1,.45-.73.61.61,0,0,1,.74.45l4.57,19.29a.6.6,0,0,1-.45.73A.36.36,0,0,1,198.16,434.66Z"/>
</g>
<g opacity="0.2">
<path d="M203.31,433.21a.61.61,0,0,1-.59-.45l-5.15-19.7a.6.6,0,0,1,.43-.74.61.61,0,0,1,.75.43l5.15,19.7a.6.6,0,0,1-.44.74A.39.39,0,0,1,203.31,433.21Z"/>
</g>
<path d="M185.91,439.71s74.28-6.71,91,12.38c0,0,7.42,5.57,12.66,19.64,0,0,1.43.56,12,2.07a3.86,3.86,0,0,0,4-2.13c2.49-5.16,10.25-16.28,30.79-15.25l64.48,9.88-7.42-14.21c-70.82-26.41-95.81,4.12-95.81,4.12S279,410.27,215,427.92A188.53,188.53,0,0,0,185.91,439.71Z" fill="#2f2e41" data-secondary="true"/>
<polygon points="344.15 505.32 341.71 528.49 203.92 503.43 203.92 483.02 344.15 505.32" fill="#0071f2" data-primary="true"/>
<polygon points="406.33 490.99 343.54 505.32 393.43 487.88 406.33 490.99" fill="#0071f2" data-primary="true"/>
<polygon points="341.1 528.49 343.54 505.32 408.16 490.99 406.33 509.37 341.1 528.49" fill="#e6e6e6"/>
<g opacity="0.2">
<path d="M349.11,510.35a.61.61,0,0,1-.16-1.2l57.23-15.5a.61.61,0,0,1,.32,1.17l-57.23,15.51Z"/>
</g>
<g opacity="0.2">
<path d="M347.9,516.44a.61.61,0,0,1-.16-1.19L405,499.75a.59.59,0,0,1,.74.42.61.61,0,0,1-.42.75l-57.23,15.5A.39.39,0,0,1,347.9,516.44Z"/>
</g>
<g opacity="0.2">
<path d="M347.9,521.32a.61.61,0,0,1-.16-1.2L405,504.62a.6.6,0,0,1,.74.43.61.61,0,0,1-.42.75l-57.23,15.5A.39.39,0,0,1,347.9,521.32Z"/>
</g>
<polygon points="444.66 510.31 444.66 516.78 517.91 507.76 517.97 501.95 444.66 510.31" fill="#2f2e41" data-secondary="true"/>
<polygon points="444.66 510.31 444.66 516.78 517.91 507.76 517.97 501.95 444.66 510.31" opacity="0.2"/>
<polygon points="663.39 471.87 663.39 487.69 762.3 493.07 761.78 469.96 663.39 471.87" fill="#0071f2" data-primary="true"/>
<polygon points="656.92 493.07 762.3 498.24 762.3 493.07 663.39 487.69 656.92 493.07" fill="#ccc"/>
<polygon points="656.92 493.07 658.13 506.42 761.78 513.86 762.3 498.24 656.92 493.07" fill="#b3b3b3"/>
<path d="M633,451.7l70.25,10.94,61.6-8.53-32.76-8.54L633,451.65S633,451.7,633,451.7Z" fill="#2f2e41" data-secondary="true"/>
<polygon points="702.03 478.49 630.89 466.3 633 451.7 703.25 462.64 702.03 478.49" fill="#fff"/>
<path d="M698.92,468h-.1l-65.16-9.61a.63.63,0,0,1-.52-.7.61.61,0,0,1,.7-.51L699,466.77a.61.61,0,0,1-.08,1.21Z" fill="#e6e6e6"/>
<path d="M698.38,473h-.12l-64.62-12.09a.61.61,0,0,1-.49-.72.61.61,0,0,1,.71-.48l64.63,12.09a.6.6,0,0,1,.48.71A.61.61,0,0,1,698.38,473Z" fill="#e6e6e6"/>
<polygon points="628.87 423.62 658.13 445.57 756.55 439.71 728.86 421.18 628.87 423.62" fill="#5d6166"/>
<path d="M627.65,435.81s29.83,22.7,29.86,23.3.63-13.54.63-13.54l-29.27-21.95Z" fill="#e6e6e6"/>
<g opacity="0.21">
<path d="M655.7,448.62a.58.58,0,0,1-.37-.13L629.72,429a.61.61,0,0,1-.12-.85.62.62,0,0,1,.86-.12l25.61,19.51a.62.62,0,0,1,.11.86A.6.6,0,0,1,655.7,448.62Z"/>
</g>
<g opacity="0.21">
<path d="M655.7,452.28a.58.58,0,0,1-.37-.13l-25.61-19.51a.61.61,0,0,1-.12-.85.62.62,0,0,1,.86-.12l25.61,19.51a.62.62,0,0,1,.11.86A.63.63,0,0,1,655.7,452.28Z"/>
</g>
<g opacity="0.21">
<path d="M654.48,454.72a.64.64,0,0,1-.37-.13L628.5,435.08a.6.6,0,0,1-.11-.85.61.61,0,0,1,.85-.12l25.61,19.51a.62.62,0,0,1,.11.86A.63.63,0,0,1,654.48,454.72Z"/>
</g>
<polygon points="657.51 459.11 658.13 445.57 756.55 439.71 756.55 453.62 657.51 459.11" fill="#525659"/>
<polygon points="703.25 462.64 702.03 478.49 761.78 469.96 764.85 454.11 703.25 462.64" fill="#2f2e41" data-secondary="true"/>
<polygon points="703.25 462.64 702.03 478.49 761.78 469.96 764.85 454.11 703.25 462.64" opacity="0.2"/>
<path d="M697.16,475.44h-.1l-63.41-10.57a.61.61,0,1,1,.2-1.2l63.41,10.56a.62.62,0,0,1,.5.7A.61.61,0,0,1,697.16,475.44Z" fill="#e6e6e6"/>
<ellipse cx="777.33" cy="495.26" rx="39.93" ry="41.15" fill="#0071f2" data-primary="true"/>
<ellipse cx="777.33" cy="495.26" rx="39.93" ry="41.15" opacity="0.2"/>
<path d="M749.76,463a.59.59,0,0,1-.56-.39c-.09-.22-2.05-5.52-.83-18.32,0-.52-.25-14.44,6.37-16.38l.7-.2c6.08-1.79,13.64-4,30.21-1.64.29.06,6.26,1.45,5.82,12.21l.8,15.18a9.61,9.61,0,0,1-1.36,4.07.6.6,0,0,1-.85.1.61.61,0,0,1-.1-.86,8.24,8.24,0,0,0,1.09-3.35l-.8-15.13c.4-9.72-4.61-11-4.82-11-16.26-2.32-23.68-.13-29.64,1.62l-.7.2c-5.74,1.68-5.51,15.12-5.5,15.26-1.2,12.58.72,17.79.74,17.84a.6.6,0,0,1-.35.78A.54.54,0,0,1,749.76,463Z" fill="#0071f2" data-primary="true"/>
<path d="M741.54,449.74l-2.28-5.59a1.24,1.24,0,0,1,.67-1.6l2.48-1a1.23,1.23,0,0,1,1.59.66l2.19,5.26Z" fill="#2f2e41" data-secondary="true"/>
<path d="M751.42,465.69a1.23,1.23,0,0,1-1.11-.7l-3.61-7.7a1.22,1.22,0,1,1,2.21-1l3.61,7.69a1.22,1.22,0,0,1-.58,1.62A1.23,1.23,0,0,1,751.42,465.69Z" fill="#2f2e41" data-secondary="true"/>
<path d="M735.09,462.58l26.55-12.12a9.6,9.6,0,0,0-7.54-6,10.35,10.35,0,0,0-6.41,1.28l-7,3a10.6,10.6,0,0,0-6.55,10.66c0,.27.07.55.11.82Z" fill="#0071f2" data-primary="true"/>
<path d="M735.09,462.58l26.55-12.12a9.6,9.6,0,0,0-7.54-6,10.35,10.35,0,0,0-6.41,1.28l-7,3a10.6,10.6,0,0,0-6.55,10.66c0,.27.07.55.11.82Z" opacity="0.2"/>
<ellipse cx="770.62" cy="494.95" rx="39.32" ry="38.41" fill="#0071f2" data-primary="true"/>
<ellipse cx="770.62" cy="494.95" rx="39.32" ry="38.41" fill="#fff" opacity="0.2"/>
<ellipse cx="770.62" cy="494.95" rx="34.96" ry="34.14" fill="#fff" opacity="0.2"/>
<circle cx="771.54" cy="493.13" r="3.05" fill="#2f2e41" data-secondary="true"/>
<path d="M761.64,511.42a.62.62,0,0,1-.52-.93l10.69-17.84a.65.65,0,0,1,.28-.24L793,483.24a.62.62,0,0,1,.81.32.61.61,0,0,1-.32.8l-20.7,9.09-10.59,17.67A.63.63,0,0,1,761.64,511.42Z" fill="#0071f2" data-primary="true"/>
<path d="M787.42,473a.62.62,0,0,1-.39-.15A.61.61,0,0,1,787,472l5.15-6.09a.62.62,0,0,1,.86-.08.61.61,0,0,1,.07.86l-5.15,6.1A.62.62,0,0,1,787.42,473Z" fill="#0071f2" data-primary="true"/>
<path d="M774.41,468a.61.61,0,0,1-.61-.61v-8.26a.62.62,0,0,1,.61-.61.61.61,0,0,1,.61.61v8.26A.61.61,0,0,1,774.41,468Z" fill="#0071f2" data-primary="true"/>
<path d="M743,517.63a.61.61,0,0,1-.44-1l6-6.22a.6.6,0,0,1,.86,0,.61.61,0,0,1,0,.86l-6,6.22A.62.62,0,0,1,743,517.63Z" fill="#0071f2" data-primary="true"/>
<path d="M797.91,520.44a.62.62,0,0,1-.45-.2l-5.33-5.92a.6.6,0,0,1,0-.86.6.6,0,0,1,.86,0l5.33,5.91a.62.62,0,0,1,0,.87A.63.63,0,0,1,797.91,520.44Z" fill="#0071f2" data-primary="true"/>
<path d="M796.53,483.37a.61.61,0,0,1-.13-1.2l9.05-2a.61.61,0,0,1,.72.47.59.59,0,0,1-.46.72l-9,2Z" fill="#0071f2" data-primary="true"/>
<path d="M807.51,500.44h-.11l-8.79-1.59a.61.61,0,0,1,.22-1.2l8.79,1.59a.61.61,0,0,1-.11,1.21Z" fill="#0071f2" data-primary="true"/>
<path d="M742.88,496.78h-.11L734,495.18a.61.61,0,0,1,.22-1.2l8.79,1.59a.61.61,0,0,1,.49.71A.6.6,0,0,1,742.88,496.78Z" fill="#0071f2" data-primary="true"/>
<path d="M745.69,482.36a.58.58,0,0,1-.35-.11l-7.12-5a.61.61,0,0,1,.7-1l7.12,5a.6.6,0,0,1-.35,1.1Z" fill="#0071f2" data-primary="true"/>
<path d="M757.51,529.71a.54.54,0,0,1-.27-.07.61.61,0,0,1-.27-.82l3.66-7.31a.61.61,0,0,1,1.09.54l-3.66,7.32A.62.62,0,0,1,757.51,529.71Z" fill="#0071f2" data-primary="true"/>
<path d="M779.57,530.7a.61.61,0,0,1-.61-.61v-8.31a.61.61,0,0,1,1.22,0v8.31A.61.61,0,0,1,779.57,530.7Z" fill="#0071f2" data-primary="true"/>
<path d="M757.51,471.18A.63.63,0,0,1,757,471l-5.19-6.3a.61.61,0,0,1,.08-.86.62.62,0,0,1,.86.08l5.19,6.3a.61.61,0,0,1-.08.86A.62.62,0,0,1,757.51,471.18Z" fill="#0071f2" data-primary="true"/>
<g opacity="0.2">
<path d="M787.42,473a.62.62,0,0,1-.39-.15A.61.61,0,0,1,787,472l5.15-6.09a.62.62,0,0,1,.86-.08.61.61,0,0,1,.07.86l-5.15,6.1A.62.62,0,0,1,787.42,473Z" fill="#fff"/>
<path d="M774.41,468a.61.61,0,0,1-.61-.61v-8.26a.62.62,0,0,1,.61-.61.61.61,0,0,1,.61.61v8.26A.61.61,0,0,1,774.41,468Z" fill="#fff"/>
<path d="M743,517.63a.61.61,0,0,1-.44-1l6-6.22a.6.6,0,0,1,.86,0,.61.61,0,0,1,0,.86l-6,6.22A.62.62,0,0,1,743,517.63Z" fill="#fff"/>
<path d="M797.91,520.44a.62.62,0,0,1-.45-.2l-5.33-5.92a.6.6,0,0,1,0-.86.6.6,0,0,1,.86,0l5.33,5.91a.62.62,0,0,1,0,.87A.63.63,0,0,1,797.91,520.44Z" fill="#fff"/>
<path d="M796.53,483.37a.61.61,0,0,1-.13-1.2l9.05-2a.61.61,0,0,1,.72.47.59.59,0,0,1-.46.72l-9,2Z" fill="#fff"/>
<path d="M807.51,500.44h-.11l-8.79-1.59a.61.61,0,0,1,.22-1.2l8.79,1.59a.61.61,0,0,1-.11,1.21Z" fill="#fff"/>
<path d="M742.88,496.78h-.11L734,495.18a.61.61,0,0,1,.22-1.2l8.79,1.59a.61.61,0,0,1,.49.71A.6.6,0,0,1,742.88,496.78Z" fill="#fff"/>
<path d="M745.69,482.36a.58.58,0,0,1-.35-.11l-7.12-5a.61.61,0,0,1,.7-1l7.12,5a.6.6,0,0,1-.35,1.1Z" fill="#fff"/>
<path d="M757.51,529.71a.54.54,0,0,1-.27-.07.61.61,0,0,1-.27-.82l3.66-7.31a.61.61,0,0,1,1.09.54l-3.66,7.32A.62.62,0,0,1,757.51,529.71Z" fill="#fff"/>
<path d="M779.57,530.7a.61.61,0,0,1-.61-.61v-8.31a.61.61,0,0,1,1.22,0v8.31A.61.61,0,0,1,779.57,530.7Z" fill="#fff"/>
<path d="M757.51,471.18A.63.63,0,0,1,757,471l-5.19-6.3a.61.61,0,0,1,.08-.86.62.62,0,0,1,.86.08l5.19,6.3a.61.61,0,0,1-.08.86A.62.62,0,0,1,757.51,471.18Z" fill="#fff"/>
</g>
<path d="M795.49,444l2.9-5.3a1.23,1.23,0,0,1,1.66-.49l2.34,1.28a1.23,1.23,0,0,1,.49,1.66l-2.69,5Z" fill="#2f2e41" data-secondary="true"/>
<path d="M790.44,459.59a1.19,1.19,0,0,1-.52-.11,1.22,1.22,0,0,1-.59-1.62l2.78-6a1.22,1.22,0,0,1,2.22,1l-2.79,6A1.21,1.21,0,0,1,790.44,459.59Z" fill="#2f2e41" data-secondary="true"/>
<path d="M780.68,446.18l26.18,12.93a9.61,9.61,0,0,0-.11-9.64,10.47,10.47,0,0,0-5-4.17l-9.13-3.74S787,437,782,444Z" fill="#0071f2" data-primary="true"/>
<path d="M780.68,446.18l26.18,12.93a9.61,9.61,0,0,0-.11-9.64,10.47,10.47,0,0,0-5-4.17l-9.13-3.74S787,437,782,444Z" opacity="0.2"/>
<path d="M174.4,425.45s-19.26-39-5.84-63.41c0,0,12.63-20.81,36-19.63a7.32,7.32,0,0,1,6.91,6.94c.19,4.16-1.1,10.57-6.72,19.91C204.76,369.26,179,410.82,174.4,425.45Z" fill="#0071f2" data-primary="true"/>
<path d="M174.4,425.45s-19.26-39-5.84-63.41c0,0,12.63-20.81,36-19.63a7.32,7.32,0,0,1,6.91,6.94c.19,4.16-1.1,10.57-6.72,19.91C204.76,369.26,179,410.82,174.4,425.45Z" opacity="0.2"/>
<path d="M187.84,464.19a.62.62,0,0,1-.55-.33L176.55,442.8C164.36,418.42,188.9,365.26,190,363a.62.62,0,0,1,.81-.29.61.61,0,0,1,.3.81c-.26.55-25.34,54.88-13.42,78.73l10.74,21.05a.61.61,0,0,1-.27.82A.52.52,0,0,1,187.84,464.19Z" fill="#2f2e41" data-secondary="true"/>
<path d="M179.6,393.11a.65.65,0,0,1-.38-.13.61.61,0,0,1-.1-.86c.47-.61,11.76-14.95,18.8-17.93a.61.61,0,0,1,.48,1.12c-6.76,2.86-18.21,17.42-18.32,17.56A.6.6,0,0,1,179.6,393.11Z" fill="#2f2e41" data-secondary="true"/>
<path d="M181,388.65a.61.61,0,0,1-.6-.47c-3.43-15.45,2.56-34.5,2.62-34.69a.61.61,0,1,1,1.16.37c-.06.19-5.94,18.94-2.59,34.05a.61.61,0,0,1-.46.73Z" fill="#2f2e41" data-secondary="true"/>
<path d="M177.09,402.39a.64.64,0,0,1-.45-.19c-9.87-10.39-6.27-25.52-6.24-25.67a.63.63,0,0,1,.74-.45.61.61,0,0,1,.45.74c0,.15-3.47,14.64,5.94,24.54a.61.61,0,0,1,0,.86A.63.63,0,0,1,177.09,402.39Z" fill="#2f2e41" data-secondary="true"/>
<path d="M179.32,464.19a.62.62,0,0,1-.59-.45c-6.14-22.24-84.32-43.23-85.11-43.43a.61.61,0,0,1-.43-.75.6.6,0,0,1,.74-.43c3.25.86,79.65,21.37,86,44.29a.61.61,0,0,1-.43.75Z" fill="#2f2e41" data-secondary="true"/>
<path d="M685.41,210.84l-125.24,1-9.35.08L610,134V71.16c1.37.61,2.73,1.24,4.1,1.89,1,.48,2,1,3,1.45,2.29,1.12,4.58,2.28,6.85,3.49V132.8Z" fill="#0071f2" data-primary="true"/>
<path d="M641.06,183.75s-8.29,13.59-41,15.46L560.17,211.8l-9.35.08L610,134V71.16c1.37.61,2.73,1.24,4.1,1.89,1,.48,2,1,3,1.45v59.22S651.43,168.85,641.06,183.75Z" opacity="0.2"/>
<path d="M686.79,213.89a4.58,4.58,0,0,1-1.38,3.06c-6.34,7-33.88,12.18-66.9,12.18-37.72,0-68.29-6.83-68.29-15.24,0-6.1,16.08-11.38,39.31-13.8a278.51,278.51,0,0,1,29-1.44c9,0,17.52.39,25.36,1.08C669,202,686.79,207.47,686.79,213.89Z" fill="#fff"/>
<path d="M686.79,213.89a4.58,4.58,0,0,1-1.38,3.06c-40.4-15.84-68.12-14.65-68.12-14.65-30.49,0-67.07,11.59-67.07,11.59,0-6.1,16.08-11.38,39.31-13.8a278.51,278.51,0,0,1,29-1.44c9,0,17.52.39,25.36,1.08C669,202,686.79,207.47,686.79,213.89Z" fill="#ccc"/>
<path d="M643.87,199.73a27.53,27.53,0,0,1-54.34.36,278.51,278.51,0,0,1,29-1.44C627.47,198.65,636,199,643.87,199.73Z" fill="#2f2e41" data-secondary="true"/>
<path d="M614.07,73.05H425.84V64.52H593.78C600.53,67,607.32,69.86,614.07,73.05Z" fill="#fff"/>
<path d="M593.78,64.52H425.84v-11c28.72-8.86,47.16-9.23,51.93-9.16.89,0,1.76,0,2.64,0C489.48,44.24,540.51,44.63,593.78,64.52Z" fill="#e6e6e6"/>
</svg>